# xmcd CD database file
#
# Track frame offsets:
#	150
#	25542
#	58489
#	72455
#	93975
#	116670
#	149692
#	175035
#	203167
#	226045
#	252200
#
# Disc length: 3729 seconds
#
# Revision: 0
# Processed by: cddbd v1.5.1PL0 Copyright (c) Steve Scherf et al.
# Submitted via: CDex 1.51
#
DISCID=990e8f0b
DTITLE=Karin Krog, Wayne Marsh and Red Mitchell - I Remember You
DYEAR=1980
DGENRE=Jazz
TTITLE0=I Remember You
TTITLE1=Trane
TTITLE2=Lester's Happy
TTITLE3=Moody's Mood For Love
TTITLE4=It's You Or No-One
TTITLE5=Loverman
TTITLE6=Speak Low
TTITLE7=That Old Feeling
TTITLE8=It's You Or No-One (Alternative Take)
TTITLE9=Speak Low (Alternative Take)
TTITLE10=That Old Feeling (Alternative Take)
EXTD=YEAR: 1980
EXTT0=
EXTT1=
EXTT2=
EXTT3=
EXTT4=
EXTT5=
EXTT6=
EXTT7=
EXTT8=
EXTT9=
EXTT10=
PLAYORDER=
